<svg xmlns="http://www.w3.org/2000/svg" viewBox="-3.61805 -3.16805 206.3361 206.3361">
  <!-- <rect width="200" height="200" stroke-width="6.1805" stroke='black'/> -->
  <path
    id="D"
    stroke="hsl(210, 100%, 50%)"
    stroke-width="6.1805"
    fill="hsl(210, 100%, 25%)"
    d="M 100 0 A 100,100 0 1 1 41.2214747707527 180.90169943749476 Z"
  />
  <path
    id="R"
    stroke="hsl(45, 100%, 50%)"
    stroke-width="6.1805"
    fill="hsl(240, 100%, 25%)"
    d="
      M 47.172450369149246 69.5
      A 61.08 61.08 1 1 1 145.33183435412104 140.81696698789034
      L 158.77852522924732 180.90169943749476
      L 100 138
      L 75.18906477237618 155.72627291619864
      A 61.8,61.8 1 0 1 54.66816564587896,140.81696698789037
      L 77.66416041288602 69.257354213752
      Z
    "
  />
<!--
  <path 
    stroke="white" stroke-width="1" fill="transparent"
    d="
      M 100 1
      L 122.33583958711398 69.257354213752
      L 195.10565162951536 69.09830056250526
      L 136.14014761921584 111.742645786248
      L 158.77852522924732 180.90169943749476
      L 100 138
      L 41.2214747707527 180.90169943749476
      L 63.85985238078417 111.742645786248
      L 4.894348370484636 69.09830056250527
      L 77.66416041288602 69.257354213752
      Z
    "
  />
  <circle cx="100" cy="100" r="61.805" 
    stroke="white" stroke-width="1" fill="transparent" />
  <line x1="100" y1="100" x2="100" stroke="white" transform="rotate(204, 100, 100)" />
  
  <line x1="100" y1="100" x2="100" stroke="white" transform="rotate(228, 100, 100)" />
  <line x1="100" y1="100" x2="100" stroke="white" transform="rotate(252, 100, 100)" />
  <line x1="100" y1="100" x2="100" stroke="white" transform="rotate(276, 100, 100)" />
  <line x1="100" y1="100" x2="100" stroke="white" transform="rotate(300, 100, 100)" />
  <line x1="100" y1="100" x2="100" stroke="white" transform="rotate(228, 100, 100)" />
  -->
</svg>